<svg width="108" height="124" viewBox="0 0 108 124" fill="none" xmlns="http://www.w3.org/2000/svg">
<path d="M71.4869 58.925C71.4869 62.6765 68.7354 65.7515 65.2503 65.7515C61.8263 65.7515 59.0137 62.6765 59.0137 58.925C59.0137 55.1735 61.7651 52.0985 65.2503 52.0985C68.7354 52.0985 71.4869 55.1735 71.4869 58.925ZM42.9331 52.0985C39.448 52.0985 36.6966 55.1735 36.6966 58.925C36.6966 62.6765 39.5091 65.7515 42.9331 65.7515C46.4183 65.7515 49.1697 62.6765 49.1697 58.925C49.2309 55.1735 46.4183 52.0985 42.9331 52.0985ZM107.5 13.169V123.5C92.0963 109.808 97.0226 114.34 79.1297 97.6085L82.3703 108.986H13.0343C6.12514 108.986 0.5 103.328 0.5 96.317V13.169C0.5 6.158 6.12514 0.5 13.0343 0.5H94.9657C101.875 0.5 107.5 6.158 107.5 13.169ZM90.0743 71.471C90.0743 51.668 81.2697 35.6165 81.2697 35.6165C72.4651 28.9745 64.0886 29.159 64.0886 29.159L63.2326 30.143C73.6269 33.341 78.4571 37.9535 78.4571 37.9535C63.9331 29.9467 46.8721 29.9453 32.7834 36.17C30.5211 37.2155 29.176 37.9535 29.176 37.9535C29.176 37.9535 34.2509 33.095 45.2566 29.897L44.6451 29.159C44.6451 29.159 36.2686 28.9745 27.464 35.6165C27.464 35.6165 18.6594 51.668 18.6594 71.471C18.6594 71.471 23.7954 80.3885 37.308 80.819C37.308 80.819 39.5703 78.0515 41.4046 75.7145C33.6394 73.3775 30.7046 68.4575 30.7046 68.4575C31.604 69.0908 33.0872 69.9116 33.2114 69.995C43.5317 75.8082 58.1912 77.7128 71.3646 72.1475C73.5046 71.348 75.8891 70.1795 78.396 68.519C78.396 68.519 75.3389 73.562 67.3291 75.8375C69.1634 78.1745 71.3646 80.819 71.3646 80.819C84.8771 80.3885 90.0743 71.471 90.0743 71.471Z" fill="white"/>
</svg>
