<svg width="134" height="118" viewBox="0 0 134 118" fill="none" xmlns="http://www.w3.org/2000/svg">
<path d="M122.444 69.4446L133.36 21.5071C134.148 18.0459 131.512 14.75 127.956 14.75H37.2616L35.1451 4.4227C34.6177 1.84859 32.3484 0 29.7159 0H6.04167C2.98105 0 0.5 2.47639 0.5 5.53125V9.21875C0.5 12.2736 2.98105 14.75 6.04167 14.75H22.1779L38.3983 93.901C34.5178 96.1285 31.9028 100.305 31.9028 105.094C31.9028 112.222 37.692 118 44.8333 118C51.9747 118 57.7639 112.222 57.7639 105.094C57.7639 101.481 56.2753 98.2177 53.8792 95.875H102.287C99.8914 98.2177 98.4028 101.481 98.4028 105.094C98.4028 112.222 104.192 118 111.333 118C118.475 118 124.264 112.222 124.264 105.094C124.264 99.9838 121.288 95.568 116.972 93.477L118.246 87.8821C119.034 84.4209 116.398 81.125 112.842 81.125H50.8638L49.3526 73.75H117.041C119.628 73.75 121.871 71.9629 122.444 69.4446Z" fill="white"/>
</svg>
