<svg width="162" height="110" viewBox="0 0 162 110" fill="none" xmlns="http://www.w3.org/2000/svg">
<path d="M153.45 70.7143H137.35V86.4286H142.985C144.318 86.4286 145.4 87.3125 145.4 88.3929V92.3214C145.4 93.4018 144.318 94.2857 142.985 94.2857H19.015C17.6817 94.2857 16.6 93.4018 16.6 92.3214V88.3929C16.6 87.3125 17.6817 86.4286 19.015 86.4286H24.65V70.7143H8.55C4.09734 70.7143 0.5 74.2254 0.5 78.5714V102.143C0.5 106.489 4.09734 110 8.55 110H153.45C157.903 110 161.5 106.489 161.5 102.143V78.5714C161.5 74.2254 157.903 70.7143 153.45 70.7143ZM129.3 86.4286V7.9308C129.3 3.53572 125.652 0 121.175 0H40.8506C36.3477 0 32.7 3.56027 32.7 7.9308V86.4286H129.3ZM53.63 41.7411L60.0448 35.529C61.1014 34.4978 62.812 34.4978 63.8686 35.5536L74.2581 45.7679L98.2069 22.5893C99.2634 21.558 100.974 21.558 102.031 22.6138L108.395 28.875C109.452 29.9063 109.452 31.5759 108.37 32.6071L76.0945 63.8393C75.038 64.8705 73.3273 64.8705 72.2708 63.8147L53.63 45.4732C52.5483 44.442 52.5734 42.7723 53.63 41.7411Z" fill="white"/>
</svg>
